<mxfile host="app.diagrams.net" agent="Mozilla/5.0 (Windows NT 10.0; Win64; x64) AppleWebKit/537.36 (KHTML, like Gecko) Chrome/127.0.0.0 Safari/537.36" version="24.7.7" pages="2">
  <diagram name="ordino-input" id="Rd9WWW1NGY2S7J0xcZhV">
    <mxGraphModel dx="1034" dy="508" grid="1" gridSize="10" guides="1" tooltips="1" connect="1" arrows="1" fold="1" page="1" pageScale="1" pageWidth="827" pageHeight="1169" math="0" shadow="0">
      <root>
        <mxCell id="0" />
        <mxCell id="1" parent="0" />
        <mxCell id="R1CslK_hxesx4svEAnT0-6" value="" style="edgeStyle=orthogonalEdgeStyle;rounded=0;orthogonalLoop=1;jettySize=auto;html=1;entryX=0.5;entryY=0;entryDx=0;entryDy=0;" parent="1" target="R1CslK_hxesx4svEAnT0-7" edge="1">
          <mxGeometry relative="1" as="geometry">
            <mxPoint x="280" y="220" as="targetPoint" />
            <mxPoint x="280" y="140" as="sourcePoint" />
          </mxGeometry>
        </mxCell>
        <mxCell id="R1CslK_hxesx4svEAnT0-10" style="edgeStyle=orthogonalEdgeStyle;rounded=0;orthogonalLoop=1;jettySize=auto;html=1;entryX=0.5;entryY=0;entryDx=0;entryDy=0;" parent="1" source="R1CslK_hxesx4svEAnT0-2" target="R1CslK_hxesx4svEAnT0-9" edge="1">
          <mxGeometry relative="1" as="geometry" />
        </mxCell>
        <mxCell id="R1CslK_hxesx4svEAnT0-2" value="LIRE age" style="shape=parallelogram;perimeter=parallelogramPerimeter;whiteSpace=wrap;html=1;fixedSize=1;" parent="1" vertex="1">
          <mxGeometry x="220" y="330" width="120" height="60" as="geometry" />
        </mxCell>
        <mxCell id="R1CslK_hxesx4svEAnT0-8" style="edgeStyle=orthogonalEdgeStyle;rounded=0;orthogonalLoop=1;jettySize=auto;html=1;exitX=0.5;exitY=1;exitDx=0;exitDy=0;entryX=0.5;entryY=0;entryDx=0;entryDy=0;" parent="1" source="R1CslK_hxesx4svEAnT0-7" target="R1CslK_hxesx4svEAnT0-2" edge="1">
          <mxGeometry relative="1" as="geometry" />
        </mxCell>
        <mxCell id="R1CslK_hxesx4svEAnT0-7" value="AFFICHER &quot;Entrez votre âge : &quot;" style="rounded=0;whiteSpace=wrap;html=1;" parent="1" vertex="1">
          <mxGeometry x="220" y="210" width="120" height="70" as="geometry" />
        </mxCell>
        <mxCell id="R1CslK_hxesx4svEAnT0-12" style="edgeStyle=orthogonalEdgeStyle;rounded=0;orthogonalLoop=1;jettySize=auto;html=1;exitX=0.5;exitY=1;exitDx=0;exitDy=0;entryX=0.5;entryY=0;entryDx=0;entryDy=0;" parent="1" source="R1CslK_hxesx4svEAnT0-9" target="R1CslK_hxesx4svEAnT0-11" edge="1">
          <mxGeometry relative="1" as="geometry" />
        </mxCell>
        <mxCell id="R1CslK_hxesx4svEAnT0-9" value="convertir age en entier" style="shape=process;whiteSpace=wrap;html=1;backgroundOutline=1;" parent="1" vertex="1">
          <mxGeometry x="220" y="430" width="120" height="60" as="geometry" />
        </mxCell>
        <mxCell id="R1CslK_hxesx4svEAnT0-15" style="edgeStyle=orthogonalEdgeStyle;rounded=0;orthogonalLoop=1;jettySize=auto;html=1;exitX=0.5;exitY=1;exitDx=0;exitDy=0;entryX=0.5;entryY=0;entryDx=0;entryDy=0;" parent="1" source="R1CslK_hxesx4svEAnT0-11" target="R1CslK_hxesx4svEAnT0-13" edge="1">
          <mxGeometry relative="1" as="geometry" />
        </mxCell>
        <mxCell id="R1CslK_hxesx4svEAnT0-11" value="CALCULER annee_naissance = 2024 - age" style="rounded=0;whiteSpace=wrap;html=1;" parent="1" vertex="1">
          <mxGeometry x="195" y="530" width="170" height="60" as="geometry" />
        </mxCell>
        <mxCell id="R1CslK_hxesx4svEAnT0-19" style="edgeStyle=orthogonalEdgeStyle;rounded=0;orthogonalLoop=1;jettySize=auto;html=1;exitX=0.5;exitY=1;exitDx=0;exitDy=0;entryX=0.5;entryY=0;entryDx=0;entryDy=0;" parent="1" source="R1CslK_hxesx4svEAnT0-13" target="mJMXPs4ghPc3uScJHmYm-3" edge="1">
          <mxGeometry relative="1" as="geometry">
            <mxPoint x="280" y="740" as="targetPoint" />
          </mxGeometry>
        </mxCell>
        <mxCell id="R1CslK_hxesx4svEAnT0-13" value="AFFICHER &quot;Vous êtes problement né(e) en &quot;, annee_naissance" style="rounded=0;whiteSpace=wrap;html=1;" parent="1" vertex="1">
          <mxGeometry x="180" y="640" width="200" height="60" as="geometry" />
        </mxCell>
        <mxCell id="mJMXPs4ghPc3uScJHmYm-2" value="" style="edgeStyle=none;curved=1;rounded=0;orthogonalLoop=1;jettySize=auto;html=1;fontSize=12;startSize=8;endSize=8;" edge="1" parent="1" source="mJMXPs4ghPc3uScJHmYm-1" target="R1CslK_hxesx4svEAnT0-7">
          <mxGeometry relative="1" as="geometry" />
        </mxCell>
        <mxCell id="mJMXPs4ghPc3uScJHmYm-1" value="DÉBUT" style="ellipse;whiteSpace=wrap;html=1;" vertex="1" parent="1">
          <mxGeometry x="220" y="70" width="120" height="80" as="geometry" />
        </mxCell>
        <mxCell id="mJMXPs4ghPc3uScJHmYm-3" value="DÉBUT" style="ellipse;whiteSpace=wrap;html=1;" vertex="1" parent="1">
          <mxGeometry x="220" y="750" width="120" height="80" as="geometry" />
        </mxCell>
      </root>
    </mxGraphModel>
  </diagram>
  <diagram id="pzJ9RRSDblXw-_95s2LP" name="ordino-pair">
    <mxGraphModel dx="1834" dy="1308" grid="0" gridSize="10" guides="1" tooltips="1" connect="1" arrows="1" fold="1" page="0" pageScale="1" pageWidth="827" pageHeight="1169" math="0" shadow="0">
      <root>
        <mxCell id="0" />
        <mxCell id="1" parent="0" />
        <mxCell id="XWRJZKRZIbhwisRUWnwU-1" value="DÉBUT" style="ellipse;whiteSpace=wrap;html=1;" vertex="1" parent="1">
          <mxGeometry x="-628" y="-415" width="120" height="80" as="geometry" />
        </mxCell>
        <mxCell id="XWRJZKRZIbhwisRUWnwU-2" value="FIN" style="ellipse;whiteSpace=wrap;html=1;" vertex="1" parent="1">
          <mxGeometry x="-659" y="-215" width="120" height="80" as="geometry" />
        </mxCell>
      </root>
    </mxGraphModel>
  </diagram>
</mxfile>
